<svg width="200" height="126" viewBox="0 0 200 126" fill="none" xmlns="http://www.w3.org/2000/svg">
<path d="M48.5015 71.0253C73.3205 67.3714 95.8644 57.5128 118.822 48.964C116.34 48.7227 113.962 48.2746 111.48 49.4121C103.379 53.135 95.0716 56.3752 86.6262 59.2363C84.9716 59.7878 83.6618 59.8223 82.4897 58.478C81.5246 57.3749 80.5249 57.3404 79.1461 57.9264C71.6659 61.0977 64.1858 64.2001 56.6711 67.268C56.223 67.4404 55.5681 68.2677 55.1199 67.268C54.7752 66.4407 55.1889 65.8547 55.9817 65.4755C56.9814 64.9929 57.981 64.4414 59.4288 63.683C58.0499 63.5796 57.1192 63.5796 56.223 63.4418C53.3619 63.0281 51.0179 61.4769 48.7428 59.8223C47.95 59.2363 47.1572 58.6848 46.0886 58.8227C45.6749 58.8916 45.2268 58.9606 45.0545 59.3397C44.8476 59.7878 45.2613 60.0636 45.537 60.3394C47.7776 62.7179 50.0183 65.0964 52.2244 67.4748C52.5346 67.8195 53.4309 68.1643 52.8104 68.7503C52.2933 69.2328 51.5005 69.4052 50.8111 68.6813C49.3633 67.2335 47.8466 65.8202 46.3643 64.3725C44.9855 63.0626 43.5722 61.8216 42.2623 60.4773C41.6074 59.7878 41.0214 59.581 40.1941 60.0981C39.6081 60.4428 38.9876 60.753 38.3326 60.9254C37.7122 61.0633 36.9193 62.2353 36.5057 61.2356C36.1265 60.3394 36.161 59.0295 37.3675 58.3745C38.8152 57.5817 40.2975 56.8578 41.7797 56.0995C42.1934 55.8926 42.5726 55.6514 42.9517 55.4101C43.2964 55.2032 43.6756 54.893 43.3999 54.4793C43.1586 54.1002 42.7794 54.4449 42.5036 54.5828C41.1937 55.2377 39.8494 55.8927 38.505 56.5821C38.0224 55.5824 38.3326 54.9619 39.1599 54.5138C39.746 54.1691 40.3664 53.8589 40.9524 53.4797C44.1237 51.377 47.0193 51.4114 50.0182 53.9968C52.4657 56.1339 55.1199 58.0643 57.981 59.6844C59.9458 60.7875 61.8073 60.9943 63.9789 59.9602C70.0113 57.0991 76.0092 54.1346 81.9037 50.9633C82.145 50.8254 82.4208 50.6876 82.6621 50.5497C83.0758 50.2739 83.7307 49.9637 83.386 49.4121C83.0758 48.8951 82.5587 49.4466 82.214 49.619C79.215 51.0323 76.2161 52.48 73.2171 53.8589C72.8724 54.0312 72.3553 54.7206 71.9417 53.9278C71.597 53.3073 71.8727 52.8592 72.4932 52.549C72.9069 52.3422 73.355 52.1698 73.6652 51.8596C74.0789 51.4804 75.3198 51.5838 74.6993 50.5152C74.2168 49.7224 73.5618 49.2053 72.4243 49.8258C69.6666 51.308 66.8055 52.6524 63.9789 54.0312C63.5308 54.2725 63.0482 54.4449 62.4622 54.7206C62.6346 52.1353 63.0482 49.9981 65.8403 48.8951C68.1844 47.9988 70.3216 46.62 72.5277 45.448C72.8724 45.2756 73.2516 45.0688 73.5273 44.793C73.9065 44.4139 73.8031 43.9313 73.6307 43.5176C73.3895 42.8972 72.9069 43.2419 72.6311 43.4142C69.9079 45.5514 68.1499 44.1036 66.5298 41.8975C66.3919 41.7251 66.2195 41.5528 66.0472 41.3804C63.91 39.1743 63.9789 38.9675 66.7021 37.3129C69.7355 35.4859 72.9413 35.7962 76.2161 36.2443C89.8665 38.1402 103.517 40.0705 117.202 41.9664C118.581 42.1733 119.718 42.4146 118.753 44.1726C118.408 44.8275 118.925 44.8965 119.339 45.1033C121.786 46.3442 124.096 46.6889 126.785 45.3101C131.163 43.104 135.609 40.9668 139.815 38.3815C140.78 37.7955 141.504 37.5887 142.331 38.4849C142.71 38.8985 143.331 39.2777 143.848 38.7262C144.33 38.2091 143.71 37.7955 143.503 37.3818C141.538 33.8313 139.884 30.1085 138.47 26.3167C138.022 25.1447 137.402 24.731 136.195 24.731C132.369 24.7655 128.956 26.2133 125.475 27.4887C118.65 30.0395 112.169 33.2798 105.861 36.8648C104.31 37.761 103 37.8299 101.449 37.6921C99.346 37.5197 97.2433 37.2439 95.1061 37.1405C93.9685 37.0716 93.7962 36.6579 94.003 35.6238C94.2788 34.3829 94.7269 33.3143 95.761 32.5904C99.346 30.0051 103.069 27.6955 107.205 26.0754C109.136 25.317 110.997 25.1447 112.824 26.1788C115.685 27.7989 118.546 27.6266 121.58 26.7303C126.406 25.317 131.197 23.8003 136.161 22.8696C139.987 22.1457 141.366 22.8696 142.917 26.3856C144.227 29.3846 145.571 32.3146 146.743 35.3825C148.122 38.933 147.502 40.691 144.33 42.8627C139.332 46.2408 133.782 48.5504 128.267 50.9289C115.582 56.3408 102.276 59.9947 89.1771 64.2346C78.1809 67.7851 67.1502 71.1632 56.1541 74.6448C54.8097 75.0584 53.5687 75.5065 53.0517 73.6106C52.9483 73.2659 52.638 73.0936 52.2244 73.2659C50.2251 74.0932 49.708 72.4731 48.5015 71.0253ZM73.7686 37.2439C73.7342 37.4163 73.7342 37.5542 73.6997 37.7265C73.941 37.7955 74.2168 37.8989 74.458 37.9334C87.2122 40.5187 100.001 43.1385 112.755 45.7238C114.065 45.9995 115.271 45.7238 116.202 44.6896C116.547 44.3105 117.133 44.0002 116.961 43.4487C116.754 42.8627 116.064 43.0695 115.582 43.0006C104.379 41.4494 93.1412 39.8637 81.9382 38.3125C79.2495 37.9334 76.4918 37.5887 73.7686 37.2439ZM97.3122 33.2453C99.0702 33.6245 100.587 34.245 101.793 33.6245C104.344 32.3146 106.895 31.0392 109.825 29.6604C104.517 27.5921 101.173 30.6255 97.3122 33.2453ZM107.757 27.3853C108.584 27.73 109.308 27.9713 109.929 28.316C110.687 28.7297 112.031 28.6262 112.1 29.6259C112.135 30.5221 110.825 30.5566 110.17 31.0392C110.135 31.0737 110.066 31.1081 110.032 31.1081C109.584 31.3494 109.205 31.6597 109.515 32.1767C109.791 32.6249 110.204 32.3836 110.583 32.2112C112.1 31.4184 113.617 30.66 115.134 29.8672C116.133 29.3501 115.961 28.9365 115.03 28.5573C113.651 28.0058 112.307 27.4198 110.928 26.9027C109.929 26.558 108.929 26.5925 107.757 27.3853Z" fill="#E51A47"/>
<path d="M150.018 31.0047C150.604 31.1081 150.88 31.5218 151.156 32.0044C155.43 38.933 158.843 46.2408 160.601 54.2725C160.67 54.6517 160.876 55.0653 160.876 55.4445C160.876 56.3407 160.842 57.4438 159.877 57.7885C158.946 58.1332 158.739 57.0302 158.325 56.4786C157.498 55.3756 156.878 54.1346 155.981 53.1005C151.5 47.7575 149.742 41.2425 147.881 34.762C147.64 33.9692 147.881 33.5555 148.294 33.0385H148.26C148.949 33.004 149.26 32.6248 149.294 32.0044L149.26 32.0388C149.673 31.9354 149.949 31.7975 149.604 31.3149L149.57 31.3494C150.121 31.5562 150.19 31.3839 150.018 31.0047ZM152.465 45.2411C154.258 49.3432 156.981 52.8592 159.463 56.6165C160.049 55.8581 160.118 55.2377 159.739 54.6517C157.671 51.2735 155.154 48.2056 152.465 45.2411Z" fill="#E51A47"/>
<path d="M147.846 25.0068C146.64 25.4205 145.433 24.9379 144.365 25.4205C143.744 25.6962 143.641 25.0758 143.4 24.731C139.022 18.0782 136.092 10.8048 134.368 3.04892C134.299 2.70421 134.23 2.3595 134.23 2.04926C134.265 1.25643 134.334 0.325723 135.196 0.0499566C136.057 -0.22581 136.264 0.704902 136.643 1.25643C138.505 3.97963 140.332 6.77176 142.193 9.49496C143.089 10.8393 143.848 12.2182 144.296 13.7693C145.468 17.4922 146.64 21.215 147.846 25.0068ZM142.228 12.8042C142.469 12.6663 142.71 12.5284 142.917 12.3905C140.745 8.56425 138.126 5.01375 135.54 1.11855C135.023 2.29056 135.058 3.04892 135.575 3.73833C137.781 6.77176 139.987 9.77072 142.228 12.8042Z" fill="#E51A47"/>
<path d="M109.515 38.2781C114.375 36.3132 119.27 34.3829 124.13 32.3836C124.716 32.1423 125.027 32.3146 125.475 32.7283C128.198 35.417 128.198 35.417 126.371 38.8641C124.889 41.6217 124.889 41.6217 121.821 41.0013C117.753 40.2084 113.651 39.4156 109.584 38.6573C109.515 38.5538 109.515 38.416 109.515 38.2781Z" fill="#E51A47"/>
<path d="M132.438 26.9372C132.576 28.7986 132.61 30.2808 132.266 31.7286C131.749 33.7624 132.231 35.3825 133.713 36.8303C134.024 37.1405 134.989 37.5542 134.196 38.2436C133.472 38.8641 132.748 38.7606 132.266 37.8299C132.093 37.5542 131.817 37.3129 131.369 36.7958C130.783 39.2088 129.611 40.8634 127.026 41.1391C127.957 39.5535 128.681 37.9678 129.404 36.3822C129.887 35.3136 129.887 34.4863 128.991 33.6245C128.474 33.1074 128.026 32.487 127.612 31.8665C127.44 31.5907 126.647 31.2805 127.44 30.8324C127.957 30.5566 128.508 30.0051 129.06 30.7979C129.508 31.3839 129.956 31.9699 130.645 32.8317C131.231 30.8668 131.749 29.1088 132.438 26.9372Z" fill="#E51A47"/>
<path d="M148.329 33.0385C147.364 32.9006 146.847 32.3146 146.502 31.4184C145.95 30.0051 145.261 28.6262 144.641 27.2129C144.33 26.489 144.261 25.8341 145.364 25.7996C147.191 25.7651 149.018 25.6962 150.811 25.972C151.983 26.1443 152.19 26.6959 151.707 27.7645C151.225 28.8675 150.225 29.7293 150.018 30.9702L150.053 30.9358C149.673 30.7979 149.673 31.0392 149.673 31.3149L149.708 31.2805C149.294 31.3839 149.018 31.5218 149.363 32.0044L149.398 31.9699C148.605 31.9354 148.26 32.3146 148.329 33.0385ZM151.225 26.9372C149.535 26.3511 148.226 26.558 146.95 26.558C146.468 26.558 145.847 26.3167 145.537 26.8682C145.227 27.4197 145.778 27.9023 145.95 28.4539C146.123 29.0399 146.502 29.0743 147.019 28.833C148.295 28.2126 149.57 27.661 151.225 26.9372Z" fill="#E51A47"/>
<path d="M13.992 122.548H7.22849L5.51847 125.822H0.898865L10.674 108.002H15.702L19.1476 125.822H14.528L13.992 122.548ZM13.456 119.247L12.3585 112.647L8.93851 119.247H13.456Z" fill="white"/>
<path d="M27.3778 107.875L29.3941 121.38L36.2087 107.875H40.8793L31.4359 125.822H25.7954L22.7072 107.875H27.3778Z" fill="white"/>
<path d="M46.917 107.875L43.7522 125.822H39.3878L42.5527 107.875H46.917Z" fill="white"/>
<path d="M58.557 122.548H51.7935L50.0834 125.822H45.4638L55.239 108.002H60.267L63.7125 125.822H59.0929L58.557 122.548ZM58.021 119.247L56.9235 112.647L53.5035 119.247H58.021Z" fill="white"/>
<path d="M81.5393 107.875L80.9268 111.327H76.0264L73.4742 125.822H69.0843L71.6365 111.327H66.7872L67.3998 107.875H81.5393Z" fill="white"/>
<path d="M91.291 107.596C92.9415 107.596 94.3707 107.926 95.5788 108.586C96.7869 109.229 97.7142 110.143 98.3608 111.327C99.0073 112.495 99.3306 113.849 99.3306 115.389C99.3306 116.049 99.2626 116.768 99.1264 117.547C98.8372 119.205 98.2332 120.678 97.3143 121.964C96.4125 123.233 95.2555 124.223 93.8433 124.934C92.448 125.645 90.8911 126 89.1726 126C87.4881 126 86.0333 125.678 84.8082 125.035C83.6002 124.392 82.6728 123.487 82.0263 122.319C81.3967 121.151 81.0819 119.789 81.0819 118.232C81.0819 117.572 81.15 116.836 81.2861 116.024C81.5754 114.382 82.1794 112.926 83.0982 111.657C84.017 110.371 85.1741 109.373 86.5693 108.662C87.9816 107.951 89.5555 107.596 91.291 107.596ZM90.9592 111.632C89.581 111.632 88.3984 112.08 87.4115 112.977C86.4417 113.857 85.8206 115.067 85.5484 116.607C85.4633 117.115 85.4208 117.538 85.4208 117.877C85.4208 119.146 85.7781 120.144 86.4927 120.872C87.2074 121.583 88.2113 121.938 89.5044 121.938C90.8656 121.938 92.0312 121.49 93.001 120.593C93.9879 119.696 94.6174 118.494 94.8897 116.988C94.9577 116.582 94.9918 116.15 94.9918 115.693C94.9918 114.424 94.6345 113.434 93.9198 112.723C93.2222 111.996 92.2353 111.632 90.9592 111.632Z" fill="white"/>
<path d="M110.671 107.875C112.543 107.875 113.955 108.289 114.908 109.119C115.878 109.948 116.363 111.048 116.363 112.419C116.363 112.842 116.329 113.223 116.261 113.561C116.023 114.864 115.461 115.973 114.576 116.887C113.692 117.8 112.535 118.427 111.105 118.765L114.143 125.822H109.319L106.613 119.044H105.618L104.418 125.822H100.054L103.219 107.875H110.671ZM111.769 113.815C111.803 113.578 111.82 113.4 111.82 113.282C111.82 112.114 111.097 111.53 109.651 111.53H106.971L106.128 116.074H108.834C110.535 116.074 111.514 115.321 111.769 113.815Z" fill="white"/>
<path d="M129.73 115.11L129.092 118.714H117.837L118.475 115.11H129.73Z" fill="white"/>
<path d="M148.582 125.822H144.22L138.863 114.805L136.924 125.822H132.562L135.725 107.875H140.087L145.418 118.994L147.383 107.875H151.745L148.582 125.822Z" fill="#E51A47"/>
<path d="M162.665 107.596C164.315 107.596 165.743 107.926 166.951 108.586C168.158 109.229 169.085 110.143 169.731 111.327C170.377 112.495 170.701 113.849 170.701 115.389C170.701 116.049 170.633 116.768 170.496 117.547C170.207 119.205 169.604 120.678 168.685 121.964C167.784 123.233 166.628 124.223 165.216 124.934C163.822 125.645 162.265 126 160.548 126C158.864 126 157.41 125.678 156.186 125.035C154.978 124.392 154.051 123.487 153.405 122.319C152.776 121.151 152.461 119.789 152.461 118.232C152.461 117.572 152.529 116.836 152.665 116.024C152.955 114.382 153.558 112.926 154.477 111.657C155.395 110.371 156.551 109.373 157.946 108.662C159.357 107.951 160.93 107.596 162.665 107.596ZM162.333 111.632C160.956 111.632 159.774 112.08 158.788 112.977C157.818 113.857 157.198 115.067 156.926 116.607C156.84 117.115 156.798 117.538 156.798 117.877C156.798 119.146 157.155 120.144 157.869 120.872C158.584 121.583 159.587 121.938 160.879 121.938C162.24 121.938 163.405 121.49 164.374 120.593C165.361 119.696 165.99 118.494 166.262 116.988C166.33 116.582 166.364 116.15 166.364 115.693C166.364 114.424 166.007 113.434 165.293 112.723C164.595 111.996 163.609 111.632 162.333 111.632Z" fill="#E51A47"/>
<path d="M199.101 107.875L191.627 125.822H186.219L185.454 113.815L180.428 125.822H175.02L173.872 107.875H178.617L178.643 120.872L184.102 107.875H188.872L189.739 120.872L194.382 107.875H199.101Z" fill="#E51A47"/>
</svg>
